<mxfile host="app.diagrams.net" modified="2022-06-24T08:37:09.818Z" agent="5.0 (Windows NT 10.0; Win64; x64) AppleWebKit/537.36 (KHTML, like Gecko) Chrome/102.0.0.0 Safari/537.36" etag="Aj-04LL6Aze8VqFyiJjJ" version="20.0.3" type="github">
  <diagram id="-hOtwmKbMHiLHde-USVi" name="Page-1">
    <mxGraphModel dx="2055" dy="1410" grid="1" gridSize="10" guides="1" tooltips="1" connect="1" arrows="1" fold="1" page="1" pageScale="1" pageWidth="827" pageHeight="1169" math="0" shadow="0">
      <root>
        <mxCell id="0" />
        <mxCell id="1" parent="0" />
        <mxCell id="LDgLOaryf-UTrllccUph-5" value="void FrequencySort(int arr[],int size)" style="swimlane;" vertex="1" parent="1">
          <mxGeometry x="20" y="30" width="335" height="1000" as="geometry" />
        </mxCell>
        <mxCell id="LDgLOaryf-UTrllccUph-7" style="edgeStyle=orthogonalEdgeStyle;rounded=0;orthogonalLoop=1;jettySize=auto;html=1;entryX=0.5;entryY=0;entryDx=0;entryDy=0;entryPerimeter=0;" edge="1" parent="LDgLOaryf-UTrllccUph-5" source="LDgLOaryf-UTrllccUph-4" target="LDgLOaryf-UTrllccUph-6">
          <mxGeometry relative="1" as="geometry" />
        </mxCell>
        <mxCell id="LDgLOaryf-UTrllccUph-4" value="&lt;div&gt;int maxValue = MaxValue(arr, size);&lt;/div&gt;&lt;div&gt;&lt;span style=&quot;&quot;&gt;	&lt;/span&gt;maxValue =arr[maxValue]+1;&lt;/div&gt;&lt;div&gt;&lt;span style=&quot;&quot;&gt;	&lt;/span&gt;int* fList = new int[maxValue] {0,};&lt;/div&gt;" style="rounded=1;whiteSpace=wrap;html=1;absoluteArcSize=1;arcSize=14;strokeWidth=2;" vertex="1" parent="LDgLOaryf-UTrllccUph-5">
          <mxGeometry x="69" y="60" width="190" height="70" as="geometry" />
        </mxCell>
        <mxCell id="LDgLOaryf-UTrllccUph-6" value="int i = 0;&amp;nbsp; i++" style="strokeWidth=2;html=1;shape=mxgraph.flowchart.loop_limit;whiteSpace=wrap;" vertex="1" parent="LDgLOaryf-UTrllccUph-5">
          <mxGeometry x="96" y="160" width="136" height="30" as="geometry" />
        </mxCell>
        <mxCell id="LDgLOaryf-UTrllccUph-12" style="edgeStyle=orthogonalEdgeStyle;rounded=0;orthogonalLoop=1;jettySize=auto;html=1;entryX=0.5;entryY=1;entryDx=0;entryDy=0;entryPerimeter=0;" edge="1" parent="LDgLOaryf-UTrllccUph-5" source="LDgLOaryf-UTrllccUph-10" target="LDgLOaryf-UTrllccUph-11">
          <mxGeometry relative="1" as="geometry" />
        </mxCell>
        <mxCell id="LDgLOaryf-UTrllccUph-10" value="fList[arr[i]]++;" style="rounded=1;whiteSpace=wrap;html=1;absoluteArcSize=1;arcSize=14;strokeWidth=2;" vertex="1" parent="LDgLOaryf-UTrllccUph-5">
          <mxGeometry x="111" y="210" width="106" height="40" as="geometry" />
        </mxCell>
        <mxCell id="LDgLOaryf-UTrllccUph-8" style="edgeStyle=orthogonalEdgeStyle;rounded=0;orthogonalLoop=1;jettySize=auto;html=1;entryX=0.5;entryY=0;entryDx=0;entryDy=0;" edge="1" parent="LDgLOaryf-UTrllccUph-5" source="LDgLOaryf-UTrllccUph-6" target="LDgLOaryf-UTrllccUph-10">
          <mxGeometry relative="1" as="geometry">
            <mxPoint x="164" y="260" as="targetPoint" />
          </mxGeometry>
        </mxCell>
        <mxCell id="LDgLOaryf-UTrllccUph-18" style="edgeStyle=orthogonalEdgeStyle;rounded=0;orthogonalLoop=1;jettySize=auto;html=1;exitX=0.5;exitY=0;exitDx=0;exitDy=0;exitPerimeter=0;entryX=0.5;entryY=0;entryDx=0;entryDy=0;entryPerimeter=0;" edge="1" parent="LDgLOaryf-UTrllccUph-5" source="LDgLOaryf-UTrllccUph-11" target="LDgLOaryf-UTrllccUph-13">
          <mxGeometry relative="1" as="geometry" />
        </mxCell>
        <mxCell id="LDgLOaryf-UTrllccUph-11" value="" style="strokeWidth=2;html=1;shape=mxgraph.flowchart.loop_limit;whiteSpace=wrap;rotation=-180;" vertex="1" parent="LDgLOaryf-UTrllccUph-5">
          <mxGeometry x="107" y="270" width="114" height="30" as="geometry" />
        </mxCell>
        <mxCell id="LDgLOaryf-UTrllccUph-13" value="int i = 0; i++" style="strokeWidth=2;html=1;shape=mxgraph.flowchart.loop_limit;whiteSpace=wrap;" vertex="1" parent="LDgLOaryf-UTrllccUph-5">
          <mxGeometry x="96" y="320" width="136" height="30" as="geometry" />
        </mxCell>
        <mxCell id="LDgLOaryf-UTrllccUph-15" value="fList[arr[i]]++;" style="rounded=1;whiteSpace=wrap;html=1;absoluteArcSize=1;arcSize=14;strokeWidth=2;" vertex="1" parent="LDgLOaryf-UTrllccUph-5">
          <mxGeometry x="111" y="370" width="106" height="40" as="geometry" />
        </mxCell>
        <mxCell id="LDgLOaryf-UTrllccUph-16" style="edgeStyle=orthogonalEdgeStyle;rounded=0;orthogonalLoop=1;jettySize=auto;html=1;entryX=0.5;entryY=0;entryDx=0;entryDy=0;" edge="1" parent="LDgLOaryf-UTrllccUph-5" source="LDgLOaryf-UTrllccUph-13" target="LDgLOaryf-UTrllccUph-15">
          <mxGeometry relative="1" as="geometry">
            <mxPoint x="-86" y="360" as="targetPoint" />
          </mxGeometry>
        </mxCell>
        <mxCell id="LDgLOaryf-UTrllccUph-17" value="" style="strokeWidth=2;html=1;shape=mxgraph.flowchart.loop_limit;whiteSpace=wrap;rotation=-180;" vertex="1" parent="LDgLOaryf-UTrllccUph-5">
          <mxGeometry x="107" y="430" width="114" height="30" as="geometry" />
        </mxCell>
        <mxCell id="LDgLOaryf-UTrllccUph-14" style="edgeStyle=orthogonalEdgeStyle;rounded=0;orthogonalLoop=1;jettySize=auto;html=1;entryX=0.5;entryY=1;entryDx=0;entryDy=0;entryPerimeter=0;" edge="1" parent="LDgLOaryf-UTrllccUph-5" source="LDgLOaryf-UTrllccUph-15" target="LDgLOaryf-UTrllccUph-17">
          <mxGeometry relative="1" as="geometry" />
        </mxCell>
        <mxCell id="LDgLOaryf-UTrllccUph-19" value="&#xa;&lt;span style=&quot;color: rgb(0, 0, 0); font-family: Helvetica; font-size: 12px; font-style: normal; font-variant-ligatures: normal; font-variant-caps: normal; font-weight: 400; letter-spacing: normal; orphans: 2; text-align: center; text-indent: 0px; text-transform: none; widows: 2; word-spacing: 0px; -webkit-text-stroke-width: 0px; background-color: rgb(248, 249, 250); text-decoration-thickness: initial; text-decoration-style: initial; text-decoration-color: initial; float: none; display: inline !important;&quot;&gt;&lt;span&gt;&amp;nbsp;&lt;/span&gt;i &amp;lt; size&lt;/span&gt;&#xa;&#xa;" style="text;html=1;strokeColor=none;fillColor=none;align=center;verticalAlign=middle;whiteSpace=wrap;rounded=0;" vertex="1" parent="LDgLOaryf-UTrllccUph-5">
          <mxGeometry x="134" y="280" width="60" height="30" as="geometry" />
        </mxCell>
        <mxCell id="LDgLOaryf-UTrllccUph-29" style="edgeStyle=orthogonalEdgeStyle;rounded=0;orthogonalLoop=1;jettySize=auto;html=1;exitX=0.5;exitY=1;exitDx=0;exitDy=0;entryX=0.5;entryY=0;entryDx=0;entryDy=0;" edge="1" parent="LDgLOaryf-UTrllccUph-5" source="LDgLOaryf-UTrllccUph-20" target="LDgLOaryf-UTrllccUph-28">
          <mxGeometry relative="1" as="geometry" />
        </mxCell>
        <mxCell id="LDgLOaryf-UTrllccUph-20" value="i &lt; maxValue" style="text;html=1;strokeColor=none;fillColor=none;align=center;verticalAlign=middle;whiteSpace=wrap;rounded=0;" vertex="1" parent="LDgLOaryf-UTrllccUph-5">
          <mxGeometry x="124" y="430" width="80" height="30" as="geometry" />
        </mxCell>
        <mxCell id="LDgLOaryf-UTrllccUph-22" value="int i = size - 1; i--" style="strokeWidth=2;html=1;shape=mxgraph.flowchart.loop_limit;whiteSpace=wrap;" vertex="1" parent="LDgLOaryf-UTrllccUph-5">
          <mxGeometry x="99.5" y="550" width="136" height="30" as="geometry" />
        </mxCell>
        <mxCell id="LDgLOaryf-UTrllccUph-23" value="b[--fList[arr[i]]] = arr[i];" style="rounded=1;whiteSpace=wrap;html=1;absoluteArcSize=1;arcSize=14;strokeWidth=2;" vertex="1" parent="LDgLOaryf-UTrllccUph-5">
          <mxGeometry x="95" y="610" width="145.5" height="40" as="geometry" />
        </mxCell>
        <mxCell id="LDgLOaryf-UTrllccUph-24" style="edgeStyle=orthogonalEdgeStyle;rounded=0;orthogonalLoop=1;jettySize=auto;html=1;entryX=0.5;entryY=0;entryDx=0;entryDy=0;" edge="1" parent="LDgLOaryf-UTrllccUph-5" source="LDgLOaryf-UTrllccUph-22" target="LDgLOaryf-UTrllccUph-23">
          <mxGeometry relative="1" as="geometry">
            <mxPoint x="-332.5" y="530" as="targetPoint" />
          </mxGeometry>
        </mxCell>
        <mxCell id="LDgLOaryf-UTrllccUph-25" value="" style="strokeWidth=2;html=1;shape=mxgraph.flowchart.loop_limit;whiteSpace=wrap;rotation=-180;" vertex="1" parent="LDgLOaryf-UTrllccUph-5">
          <mxGeometry x="110.5" y="680" width="114" height="30" as="geometry" />
        </mxCell>
        <mxCell id="LDgLOaryf-UTrllccUph-26" style="edgeStyle=orthogonalEdgeStyle;rounded=0;orthogonalLoop=1;jettySize=auto;html=1;entryX=0.5;entryY=1;entryDx=0;entryDy=0;entryPerimeter=0;" edge="1" parent="LDgLOaryf-UTrllccUph-5" source="LDgLOaryf-UTrllccUph-23" target="LDgLOaryf-UTrllccUph-25">
          <mxGeometry relative="1" as="geometry" />
        </mxCell>
        <mxCell id="LDgLOaryf-UTrllccUph-27" value="i &amp;gt;= 0" style="text;html=1;strokeColor=none;fillColor=none;align=center;verticalAlign=middle;whiteSpace=wrap;rounded=0;" vertex="1" parent="LDgLOaryf-UTrllccUph-5">
          <mxGeometry x="127.5" y="680" width="80" height="30" as="geometry" />
        </mxCell>
        <mxCell id="LDgLOaryf-UTrllccUph-30" style="edgeStyle=orthogonalEdgeStyle;rounded=0;orthogonalLoop=1;jettySize=auto;html=1;entryX=0.5;entryY=0;entryDx=0;entryDy=0;entryPerimeter=0;" edge="1" parent="LDgLOaryf-UTrllccUph-5" source="LDgLOaryf-UTrllccUph-28" target="LDgLOaryf-UTrllccUph-22">
          <mxGeometry relative="1" as="geometry" />
        </mxCell>
        <mxCell id="LDgLOaryf-UTrllccUph-28" value="int* b = new int[size] {0, };" style="rounded=1;whiteSpace=wrap;html=1;absoluteArcSize=1;arcSize=14;strokeWidth=2;" vertex="1" parent="LDgLOaryf-UTrllccUph-5">
          <mxGeometry x="94.5" y="484.5" width="146" height="40" as="geometry" />
        </mxCell>
        <mxCell id="LDgLOaryf-UTrllccUph-39" value="&lt;div&gt;delete[] fList;&lt;/div&gt;&lt;div&gt;&lt;span style=&quot;&quot;&gt;	&lt;/span&gt;delete[] b;&lt;/div&gt;" style="rounded=1;whiteSpace=wrap;html=1;absoluteArcSize=1;arcSize=14;strokeWidth=2;" vertex="1" parent="LDgLOaryf-UTrllccUph-5">
          <mxGeometry x="117" y="930" width="100" height="50" as="geometry" />
        </mxCell>
        <mxCell id="LDgLOaryf-UTrllccUph-31" value="int i = 0; i++" style="strokeWidth=2;html=1;shape=mxgraph.flowchart.loop_limit;whiteSpace=wrap;" vertex="1" parent="1">
          <mxGeometry x="119.25" y="770" width="136" height="30" as="geometry" />
        </mxCell>
        <mxCell id="LDgLOaryf-UTrllccUph-32" value="arr[i] = b[i];" style="rounded=1;whiteSpace=wrap;html=1;absoluteArcSize=1;arcSize=14;strokeWidth=2;" vertex="1" parent="1">
          <mxGeometry x="114.75" y="830" width="145.5" height="40" as="geometry" />
        </mxCell>
        <mxCell id="LDgLOaryf-UTrllccUph-33" style="edgeStyle=orthogonalEdgeStyle;rounded=0;orthogonalLoop=1;jettySize=auto;html=1;entryX=0.5;entryY=0;entryDx=0;entryDy=0;" edge="1" parent="1" source="LDgLOaryf-UTrllccUph-31" target="LDgLOaryf-UTrllccUph-32">
          <mxGeometry relative="1" as="geometry">
            <mxPoint x="-562.75" y="690" as="targetPoint" />
          </mxGeometry>
        </mxCell>
        <mxCell id="LDgLOaryf-UTrllccUph-34" value="" style="strokeWidth=2;html=1;shape=mxgraph.flowchart.loop_limit;whiteSpace=wrap;rotation=-180;" vertex="1" parent="1">
          <mxGeometry x="130.25" y="900" width="114" height="30" as="geometry" />
        </mxCell>
        <mxCell id="LDgLOaryf-UTrllccUph-35" style="edgeStyle=orthogonalEdgeStyle;rounded=0;orthogonalLoop=1;jettySize=auto;html=1;entryX=0.5;entryY=1;entryDx=0;entryDy=0;entryPerimeter=0;" edge="1" parent="1" source="LDgLOaryf-UTrllccUph-32" target="LDgLOaryf-UTrllccUph-34">
          <mxGeometry relative="1" as="geometry" />
        </mxCell>
        <mxCell id="LDgLOaryf-UTrllccUph-38" style="edgeStyle=orthogonalEdgeStyle;rounded=0;orthogonalLoop=1;jettySize=auto;html=1;" edge="1" parent="1" source="LDgLOaryf-UTrllccUph-36" target="LDgLOaryf-UTrllccUph-39">
          <mxGeometry relative="1" as="geometry">
            <mxPoint x="187.25" y="970" as="targetPoint" />
          </mxGeometry>
        </mxCell>
        <mxCell id="LDgLOaryf-UTrllccUph-36" value="&amp;nbsp;i &amp;lt; size" style="text;html=1;strokeColor=none;fillColor=none;align=center;verticalAlign=middle;whiteSpace=wrap;rounded=0;" vertex="1" parent="1">
          <mxGeometry x="147.25" y="900" width="80" height="30" as="geometry" />
        </mxCell>
        <mxCell id="LDgLOaryf-UTrllccUph-37" style="edgeStyle=orthogonalEdgeStyle;rounded=0;orthogonalLoop=1;jettySize=auto;html=1;entryX=0.5;entryY=0;entryDx=0;entryDy=0;entryPerimeter=0;" edge="1" parent="1" source="LDgLOaryf-UTrllccUph-25" target="LDgLOaryf-UTrllccUph-31">
          <mxGeometry relative="1" as="geometry" />
        </mxCell>
        <mxCell id="LDgLOaryf-UTrllccUph-40" value="int MaxValue(int arr[],int size)" style="swimlane;" vertex="1" parent="1">
          <mxGeometry x="450" y="70" width="330" height="440" as="geometry" />
        </mxCell>
        <mxCell id="LDgLOaryf-UTrllccUph-48" style="edgeStyle=orthogonalEdgeStyle;rounded=0;orthogonalLoop=1;jettySize=auto;html=1;entryX=0.5;entryY=0;entryDx=0;entryDy=0;entryPerimeter=0;" edge="1" parent="LDgLOaryf-UTrllccUph-40" source="LDgLOaryf-UTrllccUph-41" target="LDgLOaryf-UTrllccUph-42">
          <mxGeometry relative="1" as="geometry" />
        </mxCell>
        <mxCell id="LDgLOaryf-UTrllccUph-41" value="int maxIndex=0;" style="rounded=1;whiteSpace=wrap;html=1;absoluteArcSize=1;arcSize=14;strokeWidth=2;" vertex="1" parent="LDgLOaryf-UTrllccUph-40">
          <mxGeometry x="115" y="40" width="100" height="40" as="geometry" />
        </mxCell>
        <mxCell id="LDgLOaryf-UTrllccUph-42" value="int i = 0;&amp;nbsp; i++" style="strokeWidth=2;html=1;shape=mxgraph.flowchart.loop_limit;whiteSpace=wrap;" vertex="1" parent="LDgLOaryf-UTrllccUph-40">
          <mxGeometry x="97" y="120" width="136" height="30" as="geometry" />
        </mxCell>
        <mxCell id="LDgLOaryf-UTrllccUph-45" style="edgeStyle=orthogonalEdgeStyle;rounded=0;orthogonalLoop=1;jettySize=auto;html=1;entryX=0.5;entryY=0;entryDx=0;entryDy=0;entryPerimeter=0;" edge="1" parent="LDgLOaryf-UTrllccUph-40" source="LDgLOaryf-UTrllccUph-42" target="LDgLOaryf-UTrllccUph-51">
          <mxGeometry relative="1" as="geometry">
            <mxPoint x="165" y="170" as="targetPoint" />
          </mxGeometry>
        </mxCell>
        <mxCell id="LDgLOaryf-UTrllccUph-46" value="" style="strokeWidth=2;html=1;shape=mxgraph.flowchart.loop_limit;whiteSpace=wrap;rotation=-180;" vertex="1" parent="LDgLOaryf-UTrllccUph-40">
          <mxGeometry x="108" y="310" width="114" height="30" as="geometry" />
        </mxCell>
        <mxCell id="LDgLOaryf-UTrllccUph-43" style="edgeStyle=orthogonalEdgeStyle;rounded=0;orthogonalLoop=1;jettySize=auto;html=1;entryX=0.5;entryY=1;entryDx=0;entryDy=0;entryPerimeter=0;" edge="1" parent="LDgLOaryf-UTrllccUph-40" source="LDgLOaryf-UTrllccUph-52" target="LDgLOaryf-UTrllccUph-46">
          <mxGeometry relative="1" as="geometry">
            <mxPoint x="165.0666666666666" y="290" as="sourcePoint" />
          </mxGeometry>
        </mxCell>
        <mxCell id="LDgLOaryf-UTrllccUph-47" value="&#xa;&lt;span style=&quot;color: rgb(0, 0, 0); font-family: Helvetica; font-size: 12px; font-style: normal; font-variant-ligatures: normal; font-variant-caps: normal; font-weight: 400; letter-spacing: normal; orphans: 2; text-align: center; text-indent: 0px; text-transform: none; widows: 2; word-spacing: 0px; -webkit-text-stroke-width: 0px; background-color: rgb(248, 249, 250); text-decoration-thickness: initial; text-decoration-style: initial; text-decoration-color: initial; float: none; display: inline !important;&quot;&gt;&lt;span&gt;&amp;nbsp;&lt;/span&gt;i &amp;lt; size&lt;/span&gt;&#xa;&#xa;" style="text;html=1;strokeColor=none;fillColor=none;align=center;verticalAlign=middle;whiteSpace=wrap;rounded=0;" vertex="1" parent="LDgLOaryf-UTrllccUph-40">
          <mxGeometry x="135" y="320" width="60" height="30" as="geometry" />
        </mxCell>
        <mxCell id="LDgLOaryf-UTrllccUph-50" value="return maxIndex;" style="rounded=1;whiteSpace=wrap;html=1;absoluteArcSize=1;arcSize=14;strokeWidth=2;" vertex="1" parent="LDgLOaryf-UTrllccUph-40">
          <mxGeometry x="115" y="380" width="100" height="50" as="geometry" />
        </mxCell>
        <mxCell id="LDgLOaryf-UTrllccUph-49" style="edgeStyle=orthogonalEdgeStyle;rounded=0;orthogonalLoop=1;jettySize=auto;html=1;" edge="1" parent="LDgLOaryf-UTrllccUph-40" source="LDgLOaryf-UTrllccUph-46" target="LDgLOaryf-UTrllccUph-50">
          <mxGeometry relative="1" as="geometry">
            <mxPoint x="165" y="390" as="targetPoint" />
          </mxGeometry>
        </mxCell>
        <mxCell id="LDgLOaryf-UTrllccUph-53" value="true" style="edgeStyle=orthogonalEdgeStyle;rounded=0;orthogonalLoop=1;jettySize=auto;html=1;exitX=0.5;exitY=1;exitDx=0;exitDy=0;exitPerimeter=0;entryX=0.5;entryY=0;entryDx=0;entryDy=0;" edge="1" parent="LDgLOaryf-UTrllccUph-40" source="LDgLOaryf-UTrllccUph-51" target="LDgLOaryf-UTrllccUph-52">
          <mxGeometry relative="1" as="geometry" />
        </mxCell>
        <mxCell id="LDgLOaryf-UTrllccUph-54" value="false" style="edgeStyle=orthogonalEdgeStyle;rounded=0;orthogonalLoop=1;jettySize=auto;html=1;entryX=0.5;entryY=1;entryDx=0;entryDy=0;entryPerimeter=0;" edge="1" parent="LDgLOaryf-UTrllccUph-40" source="LDgLOaryf-UTrllccUph-51" target="LDgLOaryf-UTrllccUph-46">
          <mxGeometry relative="1" as="geometry">
            <Array as="points">
              <mxPoint x="280" y="200" />
              <mxPoint x="280" y="300" />
              <mxPoint x="165" y="300" />
            </Array>
          </mxGeometry>
        </mxCell>
        <mxCell id="LDgLOaryf-UTrllccUph-51" value="arr[maxIndex] &lt; arr[i]" style="strokeWidth=2;html=1;shape=mxgraph.flowchart.decision;whiteSpace=wrap;" vertex="1" parent="LDgLOaryf-UTrllccUph-40">
          <mxGeometry x="80" y="170" width="170" height="60" as="geometry" />
        </mxCell>
        <mxCell id="LDgLOaryf-UTrllccUph-52" value="maxIndex = i;" style="rounded=1;whiteSpace=wrap;html=1;absoluteArcSize=1;arcSize=14;strokeWidth=2;" vertex="1" parent="LDgLOaryf-UTrllccUph-40">
          <mxGeometry x="115" y="260" width="100" height="30" as="geometry" />
        </mxCell>
      </root>
    </mxGraphModel>
  </diagram>
</mxfile>
